# xmcd CD database file
# Copyright (C) 1997 Ti Kan
#
# Track frame offsets:
#  182
#  49467
#  85800
#  142007
#  157845
#  181237
#  195505
#  231825
#
# Disc length: 3227 seconds
#
# Revision: 1
# Processed by: cddbd v1.4b41PL1 Copyright (c) Steve Scherf et al.
# Submitted via: CDWizzard Release:4.32
#
DISCID=640c9908
DTITLE=Jimi Hendrix - Woke up this morning and found myself dead
DYEAR=1900
DGENRE=
TTITLE0=Red House
TTITLE1=Wake up this morning and find yourself dead
TTITLE2=Bleeding Heart
TTITLE3=Morrison's Lament
TTITLE4=Tomorrow Never Knows
TTITLE5=Uranus Rock
TTITLE6=Outside Woman Blues
TTITLE7=Sunshine of your Love
EXTD=Live at the "Scene-Club", NYCity 1968\nFeaturing Jim Morrison, Johnn
EXTD=y Winter, Buddy Miles
EXTT0=
EXTT1=
EXTT2=
EXTT3=
EXTT4=
EXTT5=
EXTT6=
EXTT7=
PLAYORDER=
